; OM File Header - Saved 2025/10/05 11:51:43
; (7.06 :patc (om-make-point 170 226) (om-make-point 50 50) (om-make-point 813 676) "" 183 0 nil "2025/10/05 11:51:43")
; End File Header
(in-package :om)(load-lib-for (quote nil))(setf *om-current-persistent* (om-load-patch1 "Chord with random" (quote ((let ((box (om-load-boxcall (quote bastype) "list 8" (quote list) (quote nil) (om-make-point 577 63) (om-make-point 26 28) 3 "3" nil))) (when (fboundp (quote set-active)) (set-active box nil)) box) (let ((box (om-load-editor-box1 "NOTE" (quote note) (quote ((om-load-inputfun (quote input-funbox) "object" "self" nil) (om-load-inputfun (quote input-funbox) "pitch (midicents)" "midic" 6000) (om-load-inputfun (quote input-funbox) "velocity (0-127)" "vel" 80) (om-load-inputfun (quote input-funbox) "duration (ms)" "dur" 1000) (om-load-inputfun (quote input-funbox) "MIDI channel (1-16)" "chan" 1))) (om-make-point 438 2) (om-make-point 62 109) (if (find-class (quote note) nil) (let ((newobj (make-instance (quote note) :midic 3200 :vel 80 :dur 1000 :chan 1 :from-file t))) (load-port-info newobj (quote nil)) (init-mus-color newobj (quote nil)) (set-extra-pairs newobj (quote nil)) (set-patch-pairs newobj (quote ((nil (om-load-patch-abs1 "patch" (quote nil) (quote nil) 7.06 nil "" (om-make-point 200 200) (om-make-point 400 500)))))) (set-name newobj nil) (set-tonalite newobj nil) newobj)) "x" nil (pairlis (quote (measure onset scale show-stems cursor-mode obj-mode score-mode winpos winsize mode grillestep notechancolor? zoom player inport outport deltapict cmnpref staff fontsize approx)) (list nil nil nil (quote t) (quote :normal) 0 0 (om-make-point 300 20) (om-make-point 370 280) 0 1000 nil 1 (quote :fluidsynth) nil nil (om-make-point 0 0) (let ((newobj (make-instance (quote edition-values)))) (setf (paper-size newobj) (om-make-point 600 800)) (setf (top-margin newobj) 2) (setf (left-margin newobj) 1) (setf (right-margin newobj) 1) (setf (bottom-margin newobj) 1) (setf (orientation newobj) nil) (setf (scale newobj) nil) (setf (system-space newobj) (quote (1))) (setf (system-color newobj) (quote nil)) (setf (line-space newobj) 1) (setf (title newobj) nil) (setf (show-title? newobj) nil) (setf (show-page? newobj) nil) (setf (sheet-id newobj) nil) (setf (page-mode newobj) nil) newobj) (quote g) 24 2)) t nil nil nil (quote nil)))) (when (fboundp (quote set-active)) (set-active box nil)) box) (let ((box (om-load-boxcall (quote abstraction) "harmonic" (om-load-patch-abs1 "harmonic" (quote ((let ((box (om-load-boxout "output" 0 (om-make-point 61 325) (quote ((om-load-inputfun (quote input-funbox) "" "out" nil))) nil nil))) (when (fboundp (quote set-active)) (set-active box nil)) box) (let ((box (om-load-boxcall (quote genfun) "F->MC" (quote f->mc) (quote ((om-load-inputfun (quote input-funbox) "frequency (Hz)" "FREQ" 440))) (om-make-point 64 262) nil nil nil nil 1))) (when (fboundp (quote set-active)) (set-active box nil)) box) (let ((box (om-load-boxcall (quote genfun) "OM*" (quote om*) (quote ((om-load-inputfun (quote input-funbox) "number or list" "ARG1" 0) (om-load-inputfun (quote input-funbox) "number or list" "ARG2" 0))) (om-make-point 75 206) nil nil nil nil 1))) (when (fboundp (quote set-active)) (set-active box nil)) box) (let ((box (om-load-boxcall (quote genfun) "ARITHM-SER" (quote arithm-ser) (quote ((om-load-inputfun (quote input-funbox) "begin" "BEGIN" 0) (om-load-inputfun (quote input-funbox) "end " "END" 10) (om-load-inputfun (quote input-funbox) "step" "STEP" 1))) (om-make-point 86 119) nil nil nil nil 1))) (when (fboundp (quote set-active)) (set-active box nil)) box) (let ((box (om-load-boxcall (quote genfun) "MC->F" (quote mc->f) (quote ((om-load-inputfun (quote input-funbox) "pitch or pitch list (midicents)" "MIDICS?" 6000))) (om-make-point 9 130) nil nil nil nil 1))) (when (fboundp (quote set-active)) (set-active box nil)) box) (let ((box (om-load-boxin "step" 3 (om-make-point 155 45) "" "step" 1 nil))) (when (fboundp (quote set-active)) (set-active box nil)) box) (let ((box (om-load-boxin "end" 2 (om-make-point 105 45) "Last desired harmonic" "end" 16 nil))) (when (fboundp (quote set-active)) (set-active box nil)) box) (let ((box (om-load-boxin "begin" 1 (om-make-point 55 45) "" "begin" 1 nil))) (when (fboundp (quote set-active)) (set-active box nil)) box) (let ((box (om-load-boxin "input" 0 (om-make-point 5 45) "" nil nil nil))) (when (fboundp (quote set-active)) (set-active box nil)) box))) (quote ((1 0 0 0 nil 0) (2 0 1 0 nil 0) (4 0 2 0 nil 0) (3 0 2 1 nil 0) (7 0 3 0 nil 0) (6 0 3 1 nil 0) (5 0 3 2 nil 0) (8 0 4 0 nil 0))) 7.06 nil "" (om-make-point 200 200) (om-make-point 500 400)) (quote ((om-load-inputfun (quote input-funbox) "" "input" nil) (om-load-inputfun (quote input-funbox) "" "begin" nil) (om-load-inputfun (quote input-funbox) "" "end" nil) (om-load-inputfun (quote input-funbox) "" "step" nil))) (om-make-point 484 143) nil (list (list 3200 4400 5102)) nil "harmonic"))) (when (fboundp (quote set-active)) (set-active box nil)) box) (let ((box (om-load-boxcall (quote bastype) "list 7" (quote list) (quote nil) (om-make-point 536 73) (om-make-point 16 28) 1 "1" nil))) (when (fboundp (quote set-active)) (set-active box nil)) box) (let ((box (om-load-boxcall (quote bastype) "list 6" (quote list) (quote nil) (om-make-point 629 80) (om-make-point 16 28) 1 "1" nil))) (when (fboundp (quote set-active)) (set-active box nil)) box) (let ((box (om-load-editor-box1 "CHORD 2" (quote chord) (quote ((om-load-inputfun (quote input-funbox) "object" "self" nil) (om-load-inputfun (quote input-funbox) "pitches (list of midicents)" "lmidic" (list 6000)) (om-load-inputfun (quote input-funbox) "velocities (list of values 0-127)" "lvel" (list 100)) (om-load-inputfun (quote input-funbox) "offsets (list of values in ms)" "loffset" (list 0)) (om-load-inputfun (quote input-funbox) "durations (list of values in ms)" "ldur" (list 1000)) (om-load-inputfun (quote input-funbox) "MIDI channels (list of values 0-16)" "lchan" (list 1)))) (om-make-point 114 51) (om-make-point 69 101) (let ((thechord (make-instance (quote chord) :lmidic (quote (3200 4400 5102)) :ldur (quote (1000 1000 1000)) :lvel (quote (100 100 100)) :loffset (quote (0 0 0)) :lchan (quote (1 1 1))))) (load-port-info thechord (quote (0 0 0))) (init-mus-color thechord (quote nil)) (set-extra-pairs thechord (quote nil)) (set-tonalite thechord nil) thechord) nil nil (pairlis (quote (measure onset scale show-stems cursor-mode obj-mode score-mode winpos winsize mode grillestep notechancolor? zoom player inport outport deltapict cmnpref staff fontsize approx)) (list nil nil nil (quote t) (quote :normal) 0 0 (om-make-point 400 20) (om-make-point 370 280) 0 1000 nil 1 (quote :fluidsynth) nil nil (om-make-point 0 0) (let ((newobj (make-instance (quote edition-values)))) (setf (paper-size newobj) (om-make-point 600 800)) (setf (top-margin newobj) 2) (setf (left-margin newobj) 1) (setf (right-margin newobj) 1) (setf (bottom-margin newobj) 1) (setf (orientation newobj) nil) (setf (scale newobj) nil) (setf (system-space newobj) (quote (1))) (setf (system-color newobj) (quote nil)) (setf (line-space newobj) 1) (setf (title newobj) nil) (setf (show-title? newobj) nil) (setf (show-page? newobj) nil) (setf (sheet-id newobj) nil) (setf (page-mode newobj) nil) newobj) (quote g) 24 2)) t nil nil nil (quote nil)))) (when (fboundp (quote set-active)) (set-active box nil)) box) (let ((box (om-load-boxcall (quote bastype) "list 5" (quote list) (quote nil) (om-make-point 736 412) (om-make-point 28 28) 100 "100" nil))) (when (fboundp (quote set-active)) (set-active box nil)) box) (let ((box (om-load-boxcall (quote bastype) "list 4" (quote list) (quote nil) (om-make-point 730 286) (om-make-point 48 28) (list 0 250) "(0 250)" nil))) (when (fboundp (quote set-active)) (set-active box nil)) box) (let ((box (om-load-editor-box1 "CHORD-SEQ" (quote chord-seq) (quote ((om-load-inputfun (quote input-funbox) "object" "self" nil) (om-load-inputfun (quote input-funbox) "pitches (mc): list or list of lists" "lmidic" (list 6000)) (om-load-inputfun (quote input-funbox) "onsets (ms): list" "lonset" (list 0 1000)) (om-load-inputfun (quote input-funbox) "durations (ms): list or list of lists" "ldur" (list 1000)) (om-load-inputfun (quote input-funbox) "velocities (0-127): list or list of lists" "lvel" (list 100)) (om-load-inputfun (quote input-funbox) "offsets (ms): list or list of lists" "loffset" (list 0)) (om-load-inputfun (quote input-funbox) "MIDI channels (1-16): list or list of lists" "lchan" (list 1)) (om-load-inputfun (quote input-funbox) "relative chords duration (0-100)" "legato" 0))) (om-make-point 439 459) (om-make-point 289 186) (let ((newobj (when (find-class (quote chord-seq) nil) (make-instance (quote chord-seq) :lmidic (quote ((4900 3700 5602 5602 4900 4900 5602) (5602 3700 3700 5602 5602 3700 3700) (4900 4900 4900 3700 4900 5602 4900 5602 3700) (3700 5602 3700 5602 5602 4900 3700 5602 4900) (3700 5602 5602 3700 4900) (4900 4900 5602 5602 5602 4900) (4900 3700 4900 4900 3700) (5602 4900 3700 4900 3700) (4900 5602 4900 4900 5602) (3700 5602 3700 3700 5602) (4400 5102 3200) (4400 3200 4400 5102 3200 3200 3200 3200 3200) (4400 3200 3200 4400 4400 5102 3200 3200 5102 3200) (3200 3200 3200 4400 5102 5102 3200 4400 4400) (3200 4400 4400 3200 4400 4400 5102) (3200 4400 3200 5102 3200 4400 5102 3200) (4400 3200 3200 3200) (4400 3200 4400 5102 5102 4400 4400) (5102 5102 5102 3200 5102 3200 5102 3200 5102 4400) (4400 3200 3200 3200 4400 3200) (5102 4400 4400 5102 3200 3200 4400 3200 4400 5102) (4400 5102 5102 3200 5102 5102 5102 3200 4400) (3200 3200 5102 4400 4400 5102) (4400 4400 4400 3200 4400 5102 4400) (4400 5102 4400 5102 4400 3200 3200 3200) (5102 3200 3200 4400 5102 4400 5102 4400 3200 4400) (5102 3200 4400 5102 3200 4400 3200) (3200 3200 5102 4400 4400 5102 5102 3200 5102) (5102 4400 3200) (3200 4400 5102 5102 3200 4400 5102) (3900 3900 5100 3900 3900 3900 3900 5100) (5100 5802 5802 3900 5100 3900 3900 5802) (5100 5802 5802 5802 5100) (3900 5100 5100 5802) (3900 5100 5100 3900 5802 5100 5100) (5802 5802 5802 3900) (5802 3900 5802 5100 3900 5100 3900 3900 5802) (5100 5100 5802 3900 3900 5100 5100 5802) (5802 3900 5802 5100 3900 3900 3900 5100 3900) (3900 3900 5100 3900 5802 5802 5802 3900 5100))) :lonset (quote (0 250 500 750 1000 1250 1500 1750 2000 2250 2500 2750 3000 3250 3500 3750 4000 4250 4500 4750 5000 5250 5500 5750 6000 6250 6500 6750 7000 7250 7500 7750 8000 8250 8500 8750 9000 9250 9500 9750 10000)) :ldur (quote ((250 250 250 250 250 250 250) (250 250 250 250 250 250 250) (250 250 250 250 250 250 250 250 250) (250 250 250 250 250 250 250 250 250) (250 250 250 250 250) (250 250 250 250 250 250) (250 250 250 250 250) (250 250 250 250 250) (250 250 250 250 250) (250 250 250 250 250) (250 250 250) (250 250 250 250 250 250 250 250 250) (250 250 250 250 250 250 250 250 250 250) (250 250 250 250 250 250 250 250 250) (250 250 250 250 250 250 250) (250 250 250 250 250 250 250 250) (250 250 250 250) (250 250 250 250 250 250 250) (250 250 250 250 250 250 250 250 250 250) (250 250 250 250 250 250) (250 250 250 250 250 250 250 250 250 250) (250 250 250 250 250 250 250 250 250) (250 250 250 250 250 250) (250 250 250 250 250 250 250) (250 250 250 250 250 250 250 250) (250 250 250 250 250 250 250 250 250 250) (250 250 250 250 250 250 250) (250 250 250 250 250 250 250 250 250) (250 250 250) (250 250 250 250 250 250 250) (250 250 250 250 250 250 250 250) (250 250 250 250 250 250 250 250) (250 250 250 250 250) (250 250 250 250) (250 250 250 250 250 250 250) (250 250 250 250) (250 250 250 250 250 250 250 250 250) (250 250 250 250 250 250 250 250) (250 250 250 250 250 250 250 250 250) (250 250 250 250 250 250 250 250 250))) :lvel (quote ((100 100 100 100 100 100 100) (100 100 100 100 100 100 100) (100 100 100 100 100 100 100 100 100) (100 100 100 100 100 100 100 100 100) (100 100 100 100 100) (100 100 100 100 100 100) (100 100 100 100 100) (100 100 100 100 100) (100 100 100 100 100) (100 100 100 100 100) (100 100 100) (100 100 100 100 100 100 100 100 100) (100 100 100 100 100 100 100 100 100 100) (100 100 100 100 100 100 100 100 100) (100 100 100 100 100 100 100) (100 100 100 100 100 100 100 100) (100 100 100 100) (100 100 100 100 100 100 100) (100 100 100 100 100 100 100 100 100 100) (100 100 100 100 100 100) (100 100 100 100 100 100 100 100 100 100) (100 100 100 100 100 100 100 100 100) (100 100 100 100 100 100) (100 100 100 100 100 100 100) (100 100 100 100 100 100 100 100) (100 100 100 100 100 100 100 100 100 100) (100 100 100 100 100 100 100) (100 100 100 100 100 100 100 100 100) (100 100 100) (100 100 100 100 100 100 100) (100 100 100 100 100 100 100 100) (100 100 100 100 100 100 100 100) (100 100 100 100 100) (100 100 100 100) (100 100 100 100 100 100 100) (100 100 100 100) (100 100 100 100 100 100 100 100 100) (100 100 100 100 100 100 100 100) (100 100 100 100 100 100 100 100 100) (100 100 100 100 100 100 100 100 100))) :loffset (quote ((0 0 0 0 0 0 0) (0 0 0 0 0 0 0) (0 0 0 0 0 0 0 0 0) (0 0 0 0 0 0 0 0 0) (0 0 0 0 0) (0 0 0 0 0 0) (0 0 0 0 0) (0 0 0 0 0) (0 0 0 0 0) (0 0 0 0 0) (0 0 0) (0 0 0 0 0 0 0 0 0) (0 0 0 0 0 0 0 0 0 0) (0 0 0 0 0 0 0 0 0) (0 0 0 0 0 0 0) (0 0 0 0 0 0 0 0) (0 0 0 0) (0 0 0 0 0 0 0) (0 0 0 0 0 0 0 0 0 0) (0 0 0 0 0 0) (0 0 0 0 0 0 0 0 0 0) (0 0 0 0 0 0 0 0 0) (0 0 0 0 0 0) (0 0 0 0 0 0 0) (0 0 0 0 0 0 0 0) (0 0 0 0 0 0 0 0 0 0) (0 0 0 0 0 0 0) (0 0 0 0 0 0 0 0 0) (0 0 0) (0 0 0 0 0 0 0) (0 0 0 0 0 0 0 0) (0 0 0 0 0 0 0 0) (0 0 0 0 0) (0 0 0 0) (0 0 0 0 0 0 0) (0 0 0 0) (0 0 0 0 0 0 0 0 0) (0 0 0 0 0 0 0 0) (0 0 0 0 0 0 0 0 0) (0 0 0 0 0 0 0 0 0))) :lchan (quote ((1 1 1 1 1 1 1) (1 1 1 1 1 1 1) (1 1 1 1 1 1 1 1 1) (1 1 1 1 1 1 1 1 1) (1 1 1 1 1) (1 1 1 1 1 1) (1 1 1 1 1) (1 1 1 1 1) (1 1 1 1 1) (1 1 1 1 1) (1 1 1) (1 1 1 1 1 1 1 1 1) (1 1 1 1 1 1 1 1 1 1) (1 1 1 1 1 1 1 1 1) (1 1 1 1 1 1 1) (1 1 1 1 1 1 1 1) (1 1 1 1) (1 1 1 1 1 1 1) (1 1 1 1 1 1 1 1 1 1) (1 1 1 1 1 1) (1 1 1 1 1 1 1 1 1 1) (1 1 1 1 1 1 1 1 1) (1 1 1 1 1 1) (1 1 1 1 1 1 1) (1 1 1 1 1 1 1 1) (1 1 1 1 1 1 1 1 1 1) (1 1 1 1 1 1 1) (1 1 1 1 1 1 1 1 1) (1 1 1) (1 1 1 1 1 1 1) (1 1 1 1 1 1 1 1) (1 1 1 1 1 1 1 1) (1 1 1 1 1) (1 1 1 1) (1 1 1 1 1 1 1) (1 1 1 1) (1 1 1 1 1 1 1 1 1) (1 1 1 1 1 1 1 1) (1 1 1 1 1 1 1 1 1) (1 1 1 1 1 1 1 1 1))) :legato 100)))) (load-port-info newobj (quote ((0 0 0 0 0 0 0) (0 0 0 0 0 0 0) (0 0 0 0 0 0 0 0 0) (0 0 0 0 0 0 0 0 0) (0 0 0 0 0) (0 0 0 0 0 0) (0 0 0 0 0) (0 0 0 0 0) (0 0 0 0 0) (0 0 0 0 0) (0 0 0) (0 0 0 0 0 0 0 0 0) (0 0 0 0 0 0 0 0 0 0) (0 0 0 0 0 0 0 0 0) (0 0 0 0 0 0 0) (0 0 0 0 0 0 0 0) (0 0 0 0) (0 0 0 0 0 0 0) (0 0 0 0 0 0 0 0 0 0) (0 0 0 0 0 0) (0 0 0 0 0 0 0 0 0 0) (0 0 0 0 0 0 0 0 0) (0 0 0 0 0 0) (0 0 0 0 0 0 0) (0 0 0 0 0 0 0 0) (0 0 0 0 0 0 0 0 0 0) (0 0 0 0 0 0 0) (0 0 0 0 0 0 0 0 0) (0 0 0) (0 0 0 0 0 0 0) (0 0 0 0 0 0 0 0) (0 0 0 0 0 0 0 0) (0 0 0 0 0) (0 0 0 0) (0 0 0 0 0 0 0) (0 0 0 0) (0 0 0 0 0 0 0 0 0) (0 0 0 0 0 0 0 0) (0 0 0 0 0 0 0 0 0) (0 0 0 0 0 0 0 0 0)))) (init-mus-color newobj (quote nil)) (set-extra-pairs newobj (quote nil)) (set-patch-pairs newobj (quote nil)) (set-name newobj nil) (set-tonalite newobj nil) newobj) nil nil (pairlis (quote (measure onset scale show-stems cursor-mode obj-mode score-mode winpos winsize mode grillestep notechancolor? zoom player inport outport deltapict cmnpref staff fontsize approx)) (list 1 0 nil (quote t) (quote :normal) 1 0 (om-make-point 400 20) (om-make-point 622 348) 0 1000 nil 1 (quote :fluidsynth) nil nil (om-make-point 0 0) (let ((newobj (make-instance (quote edition-values)))) (setf (paper-size newobj) (om-make-point 600 800)) (setf (top-margin newobj) 2) (setf (left-margin newobj) 1) (setf (right-margin newobj) 1) (setf (bottom-margin newobj) 1) (setf (orientation newobj) nil) (setf (scale newobj) nil) (setf (system-space newobj) (quote (1))) (setf (system-color newobj) (quote nil)) (setf (line-space newobj) 1) (setf (title newobj) nil) (setf (show-title? newobj) nil) (setf (show-page? newobj) nil) (setf (sheet-id newobj) nil) (setf (page-mode newobj) nil) newobj) (quote g) 24 2)) t nil nil nil (quote nil)))) (when (fboundp (quote set-active)) (set-active box nil)) box) (let ((box (om-load-boxcall (quote genfun) "OM+ 2" (quote om+) (quote ((om-load-inputfun (quote input-funbox) "number or list" "ARG1" 0) (om-load-inputfun (quote input-funbox) "number or list" "ARG2" 700))) (om-make-point 347 428) (om-make-point 22 35) nil nil nil 1))) (when (fboundp (quote set-active)) (set-active box nil)) box) (let ((box (om-load-boxcall (quote genfun) "OM+" (quote om+) (quote ((om-load-inputfun (quote input-funbox) "number or list" "ARG1" 0) (om-load-inputfun (quote input-funbox) "number or list" "ARG2" 500))) (om-make-point 164 428) nil nil nil nil 1))) (when (fboundp (quote set-active)) (set-active box nil)) box) (let ((box (om-load-boxcall (quote genfun) "X-APPEND 3" (quote x-append) (quote ((om-load-inputfun (quote input-funbox) "first element" "L1?" nil) (om-load-inputfun (quote input-funbox) "second element" "L2?" nil))) (om-make-point 241 577) nil nil nil nil 1))) (when (fboundp (quote set-active)) (set-active box nil)) box) (let ((box (om-load-boxcall (quote genfun) "X-APPEND 2" (quote x-append) (quote ((om-load-inputfun (quote input-funbox) "first element" "L1?" nil) (om-load-inputfun (quote input-funbox) "second element" "L2?" nil))) (om-make-point 320 499) nil nil nil nil 1))) (when (fboundp (quote set-active)) (set-active box nil)) box) (let ((box (om-load-boxcall (quote genfun) "X-APPEND" (quote x-append) (quote ((om-load-inputfun (quote input-funbox) "first element" "L1?" nil) (om-load-inputfun (quote input-funbox) "second element" "L2?" nil))) (om-make-point 154 500) nil nil nil nil 1))) (when (fboundp (quote set-active)) (set-active box nil)) box) (let ((box (om-load-boxcall (quote bastype) "list 3" (quote list) (quote nil) (om-make-point 370 305) (om-make-point 32 28) 10 "10" nil))) (when (fboundp (quote set-active)) (set-active box nil)) box) (let ((box (om-load-boxcall (quote genfun) "REPEAT-N 2" (quote repeat-n) (quote ((om-load-inputfun (quote input-funbox) "something" "SELF" nil) (om-load-inputfun (quote input-funbox) "times" "N" 0))) (om-make-point 252 371) nil nil nil nil 1))) (when (fboundp (quote set-active)) (set-active box nil)) box) (let ((box (om-load-boxcall (quote genfun) "REPEAT-N" (quote repeat-n) (quote ((om-load-inputfun (quote input-funbox) "something" "SELF" nil) (om-load-inputfun (quote input-funbox) "times" "N" 0))) (om-make-point 174 296) nil nil nil nil 1))) (when (fboundp (quote set-active)) (set-active box nil)) box) (let ((box (om-load-boxcall (quote bastype) "list 2" (quote list) (quote nil) (om-make-point 261 132) (om-make-point 22 28) 10 "10" nil))) (when (fboundp (quote set-active)) (set-active box nil)) box) (let ((box (om-load-boxcall (quote bastype) "list" (quote list) (quote nil) (om-make-point 234 133) (om-make-point 20 38) 3 "3" nil))) (when (fboundp (quote set-active)) (set-active box nil)) box) (let ((box (om-load-boxcall (quote genfun) "OM-RANDOM" (quote om-random) (quote ((om-load-inputfun (quote input-funbox) "min" "LOW" 0) (om-load-inputfun (quote input-funbox) "max" "HIGH" 1))) (om-make-point 226 189) nil nil nil nil 1))) (when (fboundp (quote set-active)) (set-active box nil)) box) (let ((box (om-load-boxcall (quote genfun) "NTH-RANDOM" (quote nth-random) (quote ((om-load-inputfun (quote input-funbox) "a list" "LIST" nil))) (om-make-point 98 201) nil nil nil nil 1))) (when (fboundp (quote set-active)) (set-active box nil)) box))) (quote ((1 1 2 0 nil 0) (3 0 2 1 nil 0) (0 0 2 2 nil 0) (4 0 2 3 nil 0) (2 0 5 1 nil 0) (11 0 8 1 nil 0) (7 0 8 2 nil 0) (6 0 8 7 nil 0) (15 0 9 0 nil 0) (15 0 10 0 nil 0) (13 0 11 0 nil 0) (12 0 11 1 nil 0) (15 0 12 0 nil 0) (9 0 12 1 nil 0) (10 0 13 0 nil 0) (15 0 13 1 nil 0) (16 0 15 0 nil 0) (14 0 15 1 nil 0) (20 0 16 0 nil 0) (19 0 16 1 nil 0) (18 0 19 0 nil 0) (17 0 19 1 nil 0) (5 1 20 0 nil 0))) nil 7.06))
