; OM File Header - Saved 2025/10/05 11:51:43
; (7.06 :patc (om-make-point 253 171) (om-make-point 50 50) (om-make-point 832 704) "" 183 0 nil "2025/10/05 11:51:43")
; End File Header
(in-package :om)(load-lib-for (quote nil))(setf *om-current-persistent* (om-load-patch1 "harmonic series" (quote ((let ((box (om-load-editor-box1 "CHORD" (quote chord) (quote ((om-load-inputfun (quote input-funbox) "object" "self" nil) (om-load-inputfun (quote input-funbox) "pitches (list of midicents)" "lmidic" (list 6000)) (om-load-inputfun (quote input-funbox) "velocities (list of values 0-127)" "lvel" (list 100)) (om-load-inputfun (quote input-funbox) "offsets (list of values in ms)" "loffset" (list 0)) (om-load-inputfun (quote input-funbox) "durations (list of values in ms)" "ldur" (list 1000)) (om-load-inputfun (quote input-funbox) "MIDI channels (list of values 0-16)" "lchan" (list 1)))) (om-make-point 193 270) (om-make-point 69 101) (let ((thechord (make-instance (quote chord) :lmidic (quote (3600 4800 5502 6000)) :ldur (quote (1000 1000 1000 1000)) :lvel (quote (100 100 100 100)) :loffset (quote (0 0 0 0)) :lchan (quote (1 1 1 1))))) (load-port-info thechord (quote (0 0 0 0))) (init-mus-color thechord (quote nil)) (set-extra-pairs thechord (quote nil)) (set-tonalite thechord nil) thechord) nil nil (pairlis (quote (measure onset scale show-stems cursor-mode obj-mode score-mode winpos winsize mode grillestep notechancolor? zoom player inport outport deltapict cmnpref staff fontsize approx)) (list nil nil nil (quote t) (quote :normal) 0 0 (om-make-point 400 20) (om-make-point 370 280) 0 1000 nil 1 (quote :fluidsynth) nil nil (om-make-point 0 0) (let ((newobj (make-instance (quote edition-values)))) (setf (paper-size newobj) (om-make-point 600 800)) (setf (top-margin newobj) 2) (setf (left-margin newobj) 1) (setf (right-margin newobj) 1) (setf (bottom-margin newobj) 1) (setf (orientation newobj) nil) (setf (scale newobj) nil) (setf (system-space newobj) (quote (1))) (setf (system-color newobj) (quote nil)) (setf (line-space newobj) 1) (setf (title newobj) nil) (setf (show-title? newobj) nil) (setf (show-page? newobj) nil) (setf (sheet-id newobj) nil) (setf (page-mode newobj) nil) newobj) (quote g) 24 2)) t nil nil nil (quote nil)))) (when (fboundp (quote set-active)) (set-active box nil)) box) (let ((box (om-load-boxcall (quote bastype) "list 4" (quote list) (quote nil) (om-make-point 364 130) (om-make-point 16 28) 1 "1" nil))) (when (fboundp (quote set-active)) (set-active box nil)) box) (let ((box (om-load-boxcall (quote bastype) "list 2" (quote list) (quote nil) (om-make-point 271 123) (om-make-point 16 28) 1 "1" nil))) (when (fboundp (quote set-active)) (set-active box nil)) box) (let ((box (om-load-boxcall (quote bastype) "list" (quote list) (quote nil) (om-make-point 175 11) (om-make-point 34 28) 3600 "3600" nil))) (when (fboundp (quote set-active)) (set-active box nil)) box) (let ((box (om-load-boxcall (quote abstraction) "harmonic" (om-load-patch-abs1 "harmonic" (quote ((let ((box (om-load-boxout "output" 0 (om-make-point 61 325) (quote ((om-load-inputfun (quote input-funbox) "" "out" nil))) nil nil))) (when (fboundp (quote set-active)) (set-active box nil)) box) (let ((box (om-load-boxcall (quote genfun) "F->MC" (quote f->mc) (quote ((om-load-inputfun (quote input-funbox) "frequency (Hz)" "FREQ" 440))) (om-make-point 64 262) nil nil nil nil 1))) (when (fboundp (quote set-active)) (set-active box nil)) box) (let ((box (om-load-boxcall (quote genfun) "OM*" (quote om*) (quote ((om-load-inputfun (quote input-funbox) "number or list" "ARG1" 0) (om-load-inputfun (quote input-funbox) "number or list" "ARG2" 0))) (om-make-point 75 206) nil nil nil nil 1))) (when (fboundp (quote set-active)) (set-active box nil)) box) (let ((box (om-load-boxcall (quote genfun) "ARITHM-SER" (quote arithm-ser) (quote ((om-load-inputfun (quote input-funbox) "begin" "BEGIN" 0) (om-load-inputfun (quote input-funbox) "end " "END" 10) (om-load-inputfun (quote input-funbox) "step" "STEP" 1))) (om-make-point 86 119) nil nil nil nil 1))) (when (fboundp (quote set-active)) (set-active box nil)) box) (let ((box (om-load-boxcall (quote genfun) "MC->F" (quote mc->f) (quote ((om-load-inputfun (quote input-funbox) "pitch or pitch list (midicents)" "MIDICS?" 6000))) (om-make-point 9 130) nil nil nil nil 1))) (when (fboundp (quote set-active)) (set-active box nil)) box) (let ((box (om-load-boxin "step" 3 (om-make-point 155 45) "" "step" 1 nil))) (when (fboundp (quote set-active)) (set-active box nil)) box) (let ((box (om-load-boxin "end" 2 (om-make-point 105 45) "Last desired harmonic" "end" 16 nil))) (when (fboundp (quote set-active)) (set-active box nil)) box) (let ((box (om-load-boxin "begin" 1 (om-make-point 55 45) "" "begin" 1 nil))) (when (fboundp (quote set-active)) (set-active box nil)) box) (let ((box (om-load-boxin "input" 0 (om-make-point 5 45) "" nil nil nil))) (when (fboundp (quote set-active)) (set-active box nil)) box))) (quote ((1 0 0 0 nil 0) (2 0 1 0 nil 0) (4 0 2 0 nil 0) (3 0 2 1 nil 0) (7 0 3 0 nil 0) (6 0 3 1 nil 0) (5 0 3 2 nil 0) (8 0 4 0 nil 0))) 7.06 nil "" (om-make-point 693 108) (om-make-point 400 400)) (quote ((om-load-inputfun (quote input-funbox) "" "input" nil) (om-load-inputfun (quote input-funbox) "" "begin" nil) (om-load-inputfun (quote input-funbox) "" "end" nil) (om-load-inputfun (quote input-funbox) "" "step" nil))) (om-make-point 219 193) nil (list (list 3600 4800 5502 6000)) nil "harmonic"))) (when (fboundp (quote set-active)) (set-active box nil)) box) (let ((box (om-load-editor-box1 "NOTE" (quote note) (quote ((om-load-inputfun (quote input-funbox) "object" "self" nil) (om-load-inputfun (quote input-funbox) "pitch (midicents)" "midic" 6000) (om-load-inputfun (quote input-funbox) "velocity (0-127)" "vel" 80) (om-load-inputfun (quote input-funbox) "duration (ms)" "dur" 1000) (om-load-inputfun (quote input-funbox) "MIDI channel (1-16)" "chan" 1))) (om-make-point 107 51) (om-make-point 62 109) (if (find-class (quote note) nil) (let ((newobj (make-instance (quote note) :midic 3600 :vel 80 :dur 1000 :chan 1 :from-file t))) (load-port-info newobj (quote nil)) (init-mus-color newobj (quote nil)) (set-extra-pairs newobj (quote nil)) (set-patch-pairs newobj (quote nil)) (set-name newobj nil) (set-tonalite newobj nil) newobj)) nil nil (pairlis (quote (measure onset scale show-stems cursor-mode obj-mode score-mode winpos winsize mode grillestep notechancolor? zoom player inport outport deltapict cmnpref staff fontsize approx)) (list nil nil nil (quote t) (quote :normal) 0 0 (om-make-point 300 20) (om-make-point 370 280) 0 1000 nil 1 (quote :fluidsynth) nil nil (om-make-point 0 0) (let ((newobj (make-instance (quote edition-values)))) (setf (paper-size newobj) (om-make-point 600 800)) (setf (top-margin newobj) 2) (setf (left-margin newobj) 1) (setf (right-margin newobj) 1) (setf (bottom-margin newobj) 1) (setf (orientation newobj) nil) (setf (scale newobj) nil) (setf (system-space newobj) (quote (1))) (setf (system-color newobj) (quote nil)) (setf (line-space newobj) 1) (setf (title newobj) nil) (setf (show-title? newobj) nil) (setf (show-page? newobj) nil) (setf (sheet-id newobj) nil) (setf (page-mode newobj) nil) newobj) (quote g) 24 2)) t nil nil nil (quote nil)))) (when (fboundp (quote set-active)) (set-active box nil)) box))) (quote ((4 0 0 1 nil 0) (5 1 4 0 nil 0) (2 0 4 1 nil 0) (1 0 4 3 ((om-make-point 370 156) (om-make-point 370 176) (om-make-point 317 190) (om-make-point 263 193)) 0) (3 0 5 1 nil 0))) nil 7.06))
